/* XPM */
static char* icono_xpm[] = {
/* columns rows colors chars-per-pixel */
"48 48 110 2 ",
"   c #EDED83830000",
".  c #EDED83830101",
"X  c #EDED84840202",
"o  c #EEEE84840202",
"O  c #EEEE85850303",
"+  c #EEEE85850404",
"@  c #EEEE86860404",
"#  c #EFEF86860505",
"$  c #EFEF87870606",
"%  c #EFEF88880707",
"&  c #F0F088880808",
"*  c #F0F089890808",
"=  c #F0F089890909",
"-  c #F1F18A8A0A0A",
";  c #F0F08A8A0B0B",
":  c #F1F18B8B0D0D",
">  c #F2F28C8C0F0F",
",  c #F2F28D8D1010",
"<  c #F2F28D8D1111",
"1  c #F3F38E8E1111",
"2  c #F2F28E8E1212",
"3  c #F3F38F8F1313",
"4  c #F3F38F8F1414",
"5  c #F4F490901515",
"6  c #F4F491911717",
"7  c #F5F592921818",
"8  c #F5F593931A1A",
"9  c #F6F694941A1A",
"0  c #F6F694941C1C",
"q  c #F6F695951C1C",
"w  c #F7F796961E1E",
"e  c #F7F796961F1F",
"r  c #F8F898982121",
"t  c #F8F899992323",
"y  c #F9F999992424",
"u  c #F9F99B9B2626",
"i  c #FAFA9C9C2828",
"p  c #FAFA9D9D2A2A",
"a  c #FBFB9E9E2A2A",
"s  c #FBFB9E9E2C2C",
"d  c #FBFB9F9F2C2C",
"f  c #FCFC9F9F2D2D",
"g  c #FCFCA0A02E2E",
"h  c #FCFCA0A02F2F",
"j  c #FCFCA1A13030",
"k  c #FDFDA2A23131",
"l  c #FDFDA2A23232",
"z  c #FEFEA2A23232",
"x  c #FEFEA3A33434",
"c  c #FEFEA4A43434",
"v  c #FEFEA4A43535",
"b  c #FEFEA5A53636",
"n  c #FFFFA5A53737",
"m  c #FFFFA6A63737",
"M  c #F6F6A2A23A3A",
"N  c #F7F7A3A33B3B",
"B  c #FFFFA6A63838",
"V  c #FFFFA6A63939",
"C  c #FFFFA7A73A3A",
"Z  c #FFFFA7A73B3B",
"A  c #FFFFA7A73C3C",
"S  c #FFFFA8A83C3C",
"D  c #FEFEA8A83D3D",
"F  c #FDFDAEAE4E4E",
"G  c #FDFDAFAF4E4E",
"H  c #FCFCB2B25757",
"J  c gray80",
"K  c #CDCDCDCDCDCD",
"L  c #CECECECECECE",
"P  c gray81",
"I  c #D0D0D0D0D0D0",
"U  c gray82",
"Y  c #D1D1D2D2D3D3",
"T  c #D2D2D2D2D2D2",
"R  c LightGray",
"E  c #D2D2D3D3D4D4",
"W  c gray83",
"Q  c #D5D5D5D5D5D5",
"!  c gray84",
"~  c #D7D7D7D7D7D7",
"^  c #D8D8D8D8D8D8",
"/  c gray85",
"(  c #DADADADADADA",
")  c gray86",
"_  c gainsboro",
"`  c #DDDDDDDDDDDD",
"'  c gray87",
"]  c #DFDFDFDFDFDF",
"[  c #E2E2D8D8CACA",
"{  c #E3E3D8D8CBCB",
"}  c #EEEEE0E0CFCF",
"|  c #EDEDE3E3D5D5",
" . c #EEEEE3E3D6D6",
".. c gray88",
"X. c #E1E1E1E1E1E1",
"o. c #E2E2E2E2E2E2",
"O. c gray89",
"+. c #E4E4E4E4E4E4",
"@. c gray90",
"#. c #E6E6E6E6E6E6",
"$. c #E7E7E7E7E7E7",
"%. c gray91",
"&. c #E8E8E8E8E9E9",
"*. c #E9E9E9E9E9E9",
"=. c #E8E8E9E9EAEA",
"-. c #EAEAEAEAEAEA",
";. c gray92",
":. c #EBEBECECECEC",
">. c #EBEBECECEDED",
",. c None",
/* pixels */
",.,.,.,.,.,.,.,.,.,.,.,.,.,.,.,.,.,.,.,.,.,.,.} H ,.,.,.,.,.,.,.,.,.,.,.,.,.,.,.,.,.,.,.,.,.,.,.",
",.,.,.,.,.,.,.,.,.,.,.,.,.,.,.,.,.,.,.,.,.;.>.| F B D ,.,.,.,.,.,.,.,.,.,.,.,.,.,.,.,.,.,.,.,.,.",
",.,.,.,.,.,.,.,.,.,.,.,.,.,.,.,.,.,.,.,.;.;.:.| F n B C ,.,.,.,.,.,.,.,.,.,.,.,.,.,.,.,.,.,.,.,.",
",.,.,.,.,.,.,.,.,.,.,.,.,.,.,.,.,.,.;.;.;.;.:.| F n B B V Z ,.,.,.,.,.,.,.,.,.,.,.,.,.,.,.,.,.,.",
",.,.,.,.,.,.,.,.,.,.,.,.,.,.,.,.;.;.;.;.;.;.:.| F n B B B B V A ,.,.,.,.,.,.,.,.,.,.,.,.,.,.,.,.",
",.,.,.,.,.,.,.,.,.,.,.,.,.,.;.;.;.;.;.;.;.;.:.| F n B B B B B B C D ,.,.,.,.,.,.,.,.,.,.,.,.,.,.",
",.,.,.,.,.,.,.,.,.,.,.,.,.;.;.;.;.;.;.;.;.;.:.| F n B B B B B B B B C ,.,.,.,.,.,.,.,.,.,.,.,.,.",
",.,.,.,.,.,.,.,.,.,.,.;.;.;.;.;.;.;.;.;.;.;.:.| F n B B B B B B B B B V Z ,.,.,.,.,.,.,.,.,.,.,.",
",.,.,.,.,.,.,.,.,.;.;.;.;.;.;.;.;.;.;.;.;.;.:.| F n B B B B B B B B B B B V S ,.,.,.,.,.,.,.,.,.",
",.,.,.,.,.,.,.,.;.;.;.;.;.;.;.;.;.;.;.;.;.;.:.| F n B B B B B B B B B B B B B C ,.,.,.,.,.,.,.,.",
",.,.,.,.,.,.;.;.;.;.;.;.;.;.;.;.;.;.;.;.;.;.:.| F n B B B B B B B B B B B B B B B C ,.,.,.,.,.,.",
",.,.,.,.;.;.;.;.;.;.;.;.;.;.;.;.;.;.;.;.;.;.:.| F n B B B B B B B B B B B B B B B B V S ,.,.,.,.",
",.,.,.W ..-.;.;.;.;.;.;.;.;.;.;.;.;.;.;.;.;.:.| F n B B B B B B B B B B B B B B B V b y , ,.,.,.",
",.,.,.J K ! O.;.;.;.;.;.;.;.;.;.;.;.;.;.;.;.:.| F n B B B B B B B B B B B B B V B a 1 X X ,.,.,.",
",.,.,.K J J L / #.;.;.;.;.;.;.;.;.;.;.;.;.;.:.| F n B B B B B B B B B B B B B j 7 @     X ,.,.,.",
",.,.,.K J J J J I ` *.;.;.;.;.;.;.;.;.;.;.;.:.| F n B B B B B B B B B B V x e &         X ,.,.,.",
",.,.,.K J J J J J J R X.-.;.;.;.;.;.;.;.;.;.:.| F n B B B B B B B B V b u : .           X ,.,.,.",
",.,.,.K J J J J J J J K ~ +.;.;.;.;.;.;.;.;.:.| F n B B B B B B B B s 3 o               X ,.,.,.",
",.,.,.K J J J J J J J J J P ( $.;.;.;.;.;.;.:.| F n B B B B B V k 8 #                   X ,.,.,.",
",.,.,.K J J J J J J J J J J J U ' *.;.;.;.;.:.| F n B B B V c r =                       X ,.,.,.",
",.,.,.K J J J J J J J J J J J J J W o.-.;.;.:.| F n B V n i > .                         X ,.,.,.",
",.,.,.K J J J J J J J J J J J J J J K ^ @.;.>.| F m B f 5 O                             X ,.,.,.",
",.,.,.K J J J J J J J J J J J J J J J J P ) &. .G k 0 $                                 X ,.,.,.",
",.,.,.K J J J J J J J J J J J J J J J J J J Y [ M *                                     X ,.,.,.",
",.,.,.K J J J J J J J J J J J J J J J J J J E { N - .                                   X ,.,.,.",
",.,.,.K J J J J J J J J J J J J J J J J I ` =. .G z w %                                 X ,.,.,.",
",.,.,.K J J J J J J J J J J J J J J L / #.;.>.| F m B h 6 +                             X ,.,.,.",
",.,.,.K J J J J J J J J J J J J K Q O.;.;.;.:.| F n B V m p < X                         X ,.,.,.",
",.,.,.K J J J J J J J J J J J T ] -.;.;.;.;.:.| F n B B B V v t ;                       X ,.,.,.",
",.,.,.K J J J J J J J J J P _ %.;.;.;.;.;.;.:.| F n B B B B B V l q $                   X ,.,.,.",
",.,.,.K J J J J J J J L ^ @.;.;.;.;.;.;.;.;.:.| F n B B B B B B B B g 5 O               X ,.,.,.",
",.,.,.K J J J J J J W o.-.;.;.;.;.;.;.;.;.;.:.| F n B B B B B B B B V n i > .           X ,.,.,.",
",.,.,.K J J J J U ' *.;.;.;.;.;.;.;.;.;.;.;.:.| F n B B B B B B B B B B V v r =         X ,.,.,.",
",.,.,.K J J P ) $.;.;.;.;.;.;.;.;.;.;.;.;.;.:.| F n B B B B B B B B B B B B V k 9 #     X ,.,.,.",
",.,.,.J K ~ +.;.;.;.;.;.;.;.;.;.;.;.;.;.;.;.:.| F n B B B B B B B B B B B B B B B d 4 o X ,.,.,.",
",.,.,.Q X.-.;.;.;.;.;.;.;.;.;.;.;.;.;.;.;.;.:.| F n B B B B B B B B B B B B B B B V b u 2 ,.,.,.",
",.,.,.,.;.;.;.;.;.;.;.;.;.;.;.;.;.;.;.;.;.;.:.| F n B B B B B B B B B B B B B B B B V S ,.,.,.,.",
",.,.,.,.,.,.;.;.;.;.;.;.;.;.;.;.;.;.;.;.;.;.:.| F n B B B B B B B B B B B B B B B C ,.,.,.,.,.,.",
",.,.,.,.,.,.,.,.;.;.;.;.;.;.;.;.;.;.;.;.;.;.:.| F n B B B B B B B B B B B B B C ,.,.,.,.,.,.,.,.",
",.,.,.,.,.,.,.,.,.;.;.;.;.;.;.;.;.;.;.;.;.;.:.| F n B B B B B B B B B B B V S ,.,.,.,.,.,.,.,.,.",
",.,.,.,.,.,.,.,.,.,.,.;.;.;.;.;.;.;.;.;.;.;.:.| F n B B B B B B B B B V Z ,.,.,.,.,.,.,.,.,.,.,.",
",.,.,.,.,.,.,.,.,.,.,.,.,.;.;.;.;.;.;.;.;.;.:.| F n B B B B B B B B C ,.,.,.,.,.,.,.,.,.,.,.,.,.",
",.,.,.,.,.,.,.,.,.,.,.,.,.,.;.;.;.;.;.;.;.;.:.| F n B B B B B B C D ,.,.,.,.,.,.,.,.,.,.,.,.,.,.",
",.,.,.,.,.,.,.,.,.,.,.,.,.,.,.,.;.;.;.;.;.;.:.| F n B B B B V A ,.,.,.,.,.,.,.,.,.,.,.,.,.,.,.,.",
",.,.,.,.,.,.,.,.,.,.,.,.,.,.,.,.,.,.;.;.;.;.:.| F n B B V Z ,.,.,.,.,.,.,.,.,.,.,.,.,.,.,.,.,.,.",
",.,.,.,.,.,.,.,.,.,.,.,.,.,.,.,.,.,.,.,.;.;.:.| F n B C ,.,.,.,.,.,.,.,.,.,.,.,.,.,.,.,.,.,.,.,.",
",.,.,.,.,.,.,.,.,.,.,.,.,.,.,.,.,.,.,.,.,.;.>.| F B D ,.,.,.,.,.,.,.,.,.,.,.,.,.,.,.,.,.,.,.,.,.",
",.,.,.,.,.,.,.,.,.,.,.,.,.,.,.,.,.,.,.,.,.,.,.} H ,.,.,.,.,.,.,.,.,.,.,.,.,.,.,.,.,.,.,.,.,.,.,."
};
